<?xml version="1.0" encoding="utf-8"?>
<!-- Generator: Adobe Illustrator 23.0.1, SVG Export Plug-In . SVG Version: 6.00 Build 0)  -->
<svg version="1.1" id="Layer_1" xmlns="http://www.w3.org/2000/svg" xmlns:xlink="http://www.w3.org/1999/xlink" x="0px" y="0px"
	 viewBox="0 0 1000 1000" style="enable-background:new 0 0 1000 1000;" xml:space="preserve">
<style type="text/css">
	.st0{fill-rule:evenodd;clip-rule:evenodd;fill:#020202;}
	.st1{fill:#F8991D;}
	.st2{fill-rule:evenodd;clip-rule:evenodd;fill:#F8991D;}
	.st3{fill-rule:evenodd;clip-rule:evenodd;fill:#010101;}
	.st4{fill-rule:evenodd;clip-rule:evenodd;fill:#F89921;}
	.st5{fill:#020202;}
	.st6{fill-rule:evenodd;clip-rule:evenodd;fill:#FFFFFF;}
	.st7{fill:#FFFFFF;}
	.st8{fill:none;stroke:#000000;stroke-width:18;stroke-miterlimit:10;}
	.st9{fill-rule:evenodd;clip-rule:evenodd;}
	.st10{fill-rule:evenodd;clip-rule:evenodd;fill:none;stroke:#000000;stroke-width:18;stroke-miterlimit:10;}
</style>
<circle cx="500" cy="500" r="377.3"/>
<g>
	<path id="path8_6_" class="st2" d="M573.6,552c-35.5,26.2-87,40.2-131.4,40.2c-62.2,0-118.2-23-160.5-61.2c-3.3-3-0.3-7.1,3.6-4.8
		c45.7,26.6,102.2,42.6,160.6,42.6c39.4,0,82.7-8.1,122.5-25C574.5,541.1,579.5,547.6,573.6,552"/>
	<path id="path10_6_" class="st2" d="M588.4,535.1c-4.5-5.8-30-2.7-41.5-1.4c-3.5,0.4-4-2.6-0.9-4.8c20.3-14.3,53.6-10.2,57.5-5.4
		c3.9,4.8-1,38.2-20.1,54.2c-2.9,2.4-5.7,1.1-4.4-2.1C583.3,564.9,592.9,540.9,588.4,535.1"/>
	<path id="path12_6_" class="st6" d="M547.7,428v-13.9c0-2.1,1.6-3.5,3.5-3.5h62.2c2,0,3.6,1.4,3.6,3.5V426c0,2-1.7,4.6-4.7,8.7
		l-32.2,46c12-0.3,24.6,1.5,35.5,7.6c2.4,1.4,3.1,3.4,3.3,5.4v14.8c0,2-2.2,4.4-4.6,3.2c-19.1-10-44.6-11.1-65.7,0.1
		c-2.2,1.2-4.4-1.2-4.4-3.2v-14.1c0-2.3,0-6.1,2.3-9.6l37.3-53.6h-32.5C549.3,431.5,547.7,430.1,547.7,428"/>
	<path id="path14_6_" class="st6" d="M320.8,514.7h-18.9c-1.8-0.1-3.2-1.5-3.4-3.2v-97.1c0-1.9,1.6-3.5,3.6-3.5h17.6
		c1.8,0.1,3.3,1.5,3.4,3.2v12.7h0.3c4.6-12.3,13.3-18,24.9-18c11.8,0,19.2,5.7,24.6,18c4.6-12.3,15-18,26.1-18
		c7.9,0,16.6,3.3,21.9,10.6c6,8.2,4.8,20,4.8,30.5l0,61.3c0,1.9-1.6,3.5-3.6,3.5h-18.9c-1.9-0.1-3.4-1.7-3.4-3.5v-51.5
		c0-4.1,0.4-14.3-0.5-18.2c-1.4-6.5-5.6-8.4-11.1-8.4c-4.6,0-9.4,3.1-11.3,8s-1.8,13.1-1.8,18.6v51.5c0,1.9-1.6,3.5-3.6,3.5h-18.9
		c-1.9-0.1-3.4-1.7-3.4-3.5l0-51.5c0-10.8,1.8-26.8-11.7-26.8c-13.6,0-13.1,15.5-13.1,26.8v51.5
		C324.4,513.1,322.8,514.7,320.8,514.7"/>
	<path id="path16_6_" class="st6" d="M670.6,408.8c28.1,0,43.3,24.1,43.3,54.8c0,29.6-16.8,53.1-43.3,53.1
		c-27.6,0-42.6-24.1-42.6-54.2C628,432.3,643.2,408.8,670.6,408.8 M670.7,428.6c-13.9,0-14.8,19-14.8,30.9
		c0,11.9-0.2,37.2,14.7,37.2c14.7,0,15.4-20.4,15.4-32.9c0-8.2-0.3-18-2.8-25.8C681,431.3,676.8,428.6,670.7,428.6"/>
	<path id="path18_6_" class="st6" d="M750.3,514.7h-18.8c-1.9-0.1-3.4-1.7-3.4-3.5l0-97.2c0.2-1.8,1.7-3.2,3.6-3.2h17.5
		c1.7,0.1,3,1.2,3.4,2.7v14.9h0.3c5.3-13.3,12.7-19.6,25.8-19.6c8.5,0,16.8,3.1,22.1,11.4c5,7.8,5,20.8,5,30.2v61.1
		c-0.2,1.7-1.8,3.1-3.6,3.1h-19c-1.7-0.1-3.2-1.4-3.4-3.1v-52.8c0-10.6,1.2-26.2-11.8-26.2c-4.6,0-8.8,3.1-10.9,7.8
		c-2.7,5.9-3,11.8-3,18.4v52.3C754,513.1,752.3,514.7,750.3,514.7"/>
	<path id="path28_6_" class="st6" d="M498.1,468.3c0,7.4,0.2,13.5-3.5,20.1c-3,5.3-7.8,8.6-13.1,8.6c-7.3,0-11.5-5.5-11.5-13.7
		c0-16.1,14.5-19.1,28.2-19.1L498.1,468.3 M517.2,514.4c-1.3,1.1-3.1,1.2-4.5,0.5c-6.3-5.2-7.4-7.6-10.9-12.6
		c-10.4,10.6-17.8,13.8-31.2,13.8c-15.9,0-28.3-9.8-28.3-29.5c0-15.4,8.3-25.8,20.2-30.9c10.3-4.5,24.6-5.3,35.6-6.6v-2.4
		c0-4.5,0.3-9.8-2.3-13.7c-2.3-3.5-6.7-4.9-10.6-4.9c-7.2,0-13.6,3.7-15.2,11.4c-0.3,1.7-1.6,3.4-3.3,3.5l-18.3-2
		c-1.5-0.3-3.3-1.6-2.8-4c4.2-22.3,24.3-29,42.3-29c9.2,0,21.2,2.4,28.5,9.4c9.2,8.6,8.3,20.1,8.3,32.6v29.5
		c0,8.9,3.7,12.8,7.1,17.5c1.2,1.7,1.5,3.8-0.1,5C527.9,505.1,521,511.1,517.2,514.4L517.2,514.4"/>
	<path id="path30_6_" class="st6" d="M250,468.3c0,7.4,0.2,13.5-3.5,20.1c-3,5.3-7.8,8.6-13.1,8.6c-7.3,0-11.5-5.5-11.5-13.7
		c0-16.1,14.5-19.1,28.1-19.1V468.3 M269.1,514.4c-1.3,1.1-3.1,1.2-4.5,0.5c-6.3-5.2-7.4-7.6-10.9-12.6
		C243.4,512.8,236,516,222.6,516c-15.9,0-28.3-9.8-28.3-29.5c0-15.4,8.3-25.8,20.2-30.9c10.3-4.5,24.6-5.3,35.6-6.6v-2.4
		c0-4.5,0.3-9.8-2.3-13.7c-2.3-3.5-6.7-4.9-10.6-4.9c-7.2,0-13.7,3.7-15.2,11.4c-0.3,1.7-1.6,3.4-3.3,3.5l-18.4-2
		c-1.5-0.3-3.2-1.6-2.8-4c4.2-22.3,24.3-29,42.3-29c9.2,0,21.2,2.4,28.5,9.4c9.2,8.6,8.3,20.1,8.3,32.6v29.5
		c0,8.9,3.7,12.8,7.1,17.5c1.2,1.7,1.5,3.8-0.1,5C279.8,505.1,272.9,511.1,269.1,514.4L269.1,514.4"/>
</g>
</svg>
